Coordinates
version=1
nRows=22
nColumns=24
inDegrees=yes

Units are S.I. units (second, meters, Newtons, ...)
Angles are in degrees.

endheader
time	pelvis_tilt	pelvis_list	pelvis_rotation	pelvis_tx	pelvis_ty	pelvis_tz	hip_flexion_r	hip_adduction_r	hip_rotation_r	knee_angle_r	ankle_angle_r	subtalar_angle_r	mtp_angle_r	hip_flexion_l	hip_adduction_l	hip_rotation_l	knee_angle_l	ankle_angle_l	subtalar_angle_l	mtp_angle_l	lumbar_extension	lumbar_bending	lumbar_rotation
      0.46200000	     -6.47994739	      4.15471082	      1.66403136	     -0.78163954	      0.98023924	      0.27833671	     33.75774596	     -2.24441544	     -1.79263460	    -14.73843438	      4.75780126	     -8.05856349	      0.08199607	     -8.73260074	      8.10210227	      0.49664990	     -3.56882349	      9.24770071	     -1.98265200	      0.26788886	      1.77834197	     -1.98356670	      0.53070267
      0.46616667	     -6.47933620	      4.15594085	      1.68973076	     -0.77580432	      0.97967536	      0.27858461	     33.63988605	     -2.21013700	     -1.90078494	    -14.59993881	      4.61854455	     -8.06642745	      0.10595453	     -8.81561886	      8.07330928	      0.63475161	     -4.10218245	      9.27011641	     -2.12139736	      0.28442632	      1.80293507	     -1.97236999	      0.54268723
      0.47033333	     -6.49268108	      4.15567465	      1.70194007	     -0.76993929	      0.97914118	      0.27888423	     33.51459588	     -2.15654587	     -1.92523372	    -14.48657858	      4.36814313	     -8.18493784	      0.18988934	     -8.83746452	      8.04035798	      0.67972947	     -4.72116306	      9.28320740	     -2.12364069	      0.35363617	      1.85311596	     -1.96776926	      0.46581820
      0.47450000	     -6.48894525	      4.15410508	      1.70489704	     -0.76404075	      0.97866004	      0.27916074	     33.38923380	     -2.10728069	     -1.98225610	    -14.48846859	      4.14178493	     -8.26342224	      0.22791651	     -8.84785336	      8.01100206	      0.72442661	     -5.39878636	      9.33118616	     -2.16694852	      0.39452412	      1.88227412	     -1.94550179	      0.45974005
      0.47866667	     -6.48081903	      4.15694629	      1.70614841	     -0.75811256	      0.97825549	      0.27945676	     33.24534879	     -2.05835797	     -2.01021891	    -14.52981716	      3.84507164	     -8.38618856	      0.27365954	     -8.83049769	      7.98419097	      0.74949691	     -6.13565353	      9.31522580	     -2.16618031	      0.44952970	      1.91373104	     -1.93424037	      0.43501254
      0.48283333	     -6.49299383	      4.13781377	      1.70318067	     -0.75215426	      0.97787550	      0.27976628	     33.11113680	     -1.98222508	     -1.99814444	    -14.60959625	      3.49269236	     -8.58512940	      0.34456745	     -8.74693142	      7.93422624	      0.75504195	     -6.94964440	      9.29663864	     -2.13022046	      0.54257915	      1.96612197	     -1.88789516	      0.40144222
      0.48700000	     -6.46753916	      4.10797331	      1.68696981	     -0.74618680	      0.97760488	      0.28016142	     32.91426954	     -1.87107920	     -1.87341957	    -14.70900484	      3.20316169	     -9.08836317	      0.83817703	     -8.65593114	      7.86191426	      0.66708977	     -7.85424417	      9.28630726	     -1.93560452	      1.18481269	      1.95750027	     -1.85376083	      0.37832798
      0.49116667	     -6.49133202	      4.09574356	      1.66341081	     -0.74015511	      0.97731578	      0.28045776	     32.80457700	     -1.80469178	     -1.87810180	    -14.91776274	      2.81671565	     -9.10673336	      0.90536340	     -8.51554859	      7.82971367	      0.69557163	     -8.74375653	      9.09254365	     -2.04764333	      1.28537498	      2.03904426	     -1.79979087	      0.38644896
      0.49533333	     -6.52513129	      4.07810057	      1.62828361	     -0.73413547	      0.97704358	      0.28084490	     32.69182273	     -1.70561680	     -1.74771174	    -15.14934427	      2.51480645	     -9.53681987	      1.26637721	     -8.28989284	      7.78039327	      0.60038915	     -9.77405949	      8.95851941	     -1.97481970	      1.86590244	      2.13625476	     -1.75756457	      0.36485222
      0.49950000	     -6.50498177	      4.06383240	      1.61043676	     -0.72807467	      0.97691921	      0.28112635	     32.52889585	     -1.64807484	     -1.76176798	    -15.42902292	      2.09569264	     -9.55782664	      1.33771505	     -8.11954718	      7.74495852	      0.64038217	    -10.80201539	      8.71086469	     -2.07872729	      2.00234128	      2.15277068	     -1.70969304	      0.41223277
      0.50366667	     -6.53026451	      4.03495523	      1.56140007	     -0.72203704	      0.97675745	      0.28156377	     32.40500430	     -1.52960634	     -1.59117945	    -15.72569735	      1.81751634	    -10.02597132	      1.71968975	     -7.80616252	      7.67767208	      0.48177891	    -12.00115778	      8.52428972	     -1.96315365	      2.78339596	      2.24227423	     -1.65919921	      0.45464501
      0.50783333	     -6.45824995	      3.97995494	      1.50832380	     -0.71592220	      0.97680221	      0.28195981	     32.15357027	     -1.40247567	     -1.50407652	    -15.99001207	      1.33494668	    -10.30658794	      3.85913494	     -7.58983535	      7.58103964	      0.34509954	    -13.19560468	      8.10352498	     -1.99946149	      7.61527581	      2.20877159	     -1.56443234	      0.52927410
      0.51200000	     -6.49639254	      3.97866680	      1.48341323	     -0.70987675	      0.97670644	      0.28225946	     32.08844549	     -1.36214943	     -1.50694422	    -16.42093446	      1.04018744	    -10.29562697	      3.87418269	     -7.20910679	      7.55921390	      0.33286754	    -14.47650296	      7.67984876	     -2.13026948	      7.65586426	      2.30194879	     -1.52218294	      0.57319962
      0.51616667	     -6.51697333	      3.95224505	      1.44108014	     -0.70386318	      0.97667204	      0.28267185	     31.98090002	     -1.26812515	     -1.39541966	    -16.81864107	      0.78576163	    -10.52852922	      3.92251248	     -6.75930399	      7.49090947	      0.17894384	    -15.91723915	      7.32493757	     -2.08611946	      7.86525196	      2.37972198	     -1.47947145	      0.64596802
      0.52033333	     -6.51804244	      3.88554515	      1.39568243	     -0.69781630	      0.97671895	      0.28312085	     31.83272520	     -1.12885717	     -1.27360158	    -17.19627261	      0.54764585	    -10.83805935	      4.01451983	     -6.28660290	      7.36545212	     -0.03099650	    -17.42046230	      6.83446067	     -1.98156162	      8.39525202	      2.43753531	     -1.37889392	      0.74901255
      0.52450000	     -6.52372117	      3.83200843	      1.34714896	     -0.69180757	      0.97677828	      0.28353475	     31.70557404	     -1.01612153	     -1.19742102	    -17.60050616	      0.24217072	    -10.87089644	      4.04076882	     -5.76182575	      7.26167065	     -0.20605757	    -18.99810979	      6.30039283	     -2.02533061	      8.59607477	      2.49772796	     -1.29414333	      0.82441058
      0.52866667	     -6.48490282	      3.69955940	      1.25030230	     -0.68580670	      0.97691087	      0.28414082	     31.50429775	     -0.76797011	     -0.96920458	    -17.96787774	      0.03607542	    -11.41796132	      4.21372430	     -5.20988287	      7.03614419	     -0.58577146	    -20.69787212	      5.76042691	     -1.86255307	     10.30018881	      2.48832703	     -1.10570232	      0.96034034
      0.53283333	     -6.53626569	      3.65091405	      1.23751627	     -0.67989536	      0.97693041	      0.28451577	     31.46011311	     -0.69142579	     -0.97910476	    -18.45980508	     -0.10874578	    -11.29995292	      4.23279949	     -4.51754720	      6.92096503	     -0.75193203	    -22.45978692	      5.07209125	     -1.88521272	     10.50445719	      2.59731644	     -1.04269077	      1.04219496
      0.53700000	     -6.51930719	      3.53399826	      1.18204971	     -0.67399677	      0.97706513	      0.28503607	     31.32051059	     -0.50410912	     -0.89690686	    -18.91368298	     -0.21387024	    -11.52152771	      4.45249626	     -3.84370634	      6.70252594	     -1.05823516	    -24.28586376	      4.29235391	     -1.89930001	     15.28683401	      2.60773811	     -0.88471124	      1.14428723
      0.54116667	     -6.51734678	      3.40226476	      1.12640416	     -0.66811523	      0.97718031	      0.28555604	     31.18505085	     -0.30567319	     -0.81601919	    -19.34455634	     -0.26547422	    -11.54912051	      4.45472669	     -3.10446492	      6.45967980	     -1.37307623	    -26.19835894	      3.52139194	     -1.84358762	     15.32485092	      2.64690202	     -0.71903229	      1.26363666
      0.54533333	     -6.51623583	      3.24812317	      1.07419080	     -0.66229422	      0.97731072	      0.28610384	     31.05053568	     -0.08271292	     -0.73925180	    -19.77748962	     -0.28034519	    -11.68017788	      4.45097464	     -2.31263867	      6.17699462	     -1.70034826	    -28.17488338	      2.70951793	     -1.78586156	     15.40520069	      2.67669959	     -0.52912969	      1.38821018
      0.54950000	     -6.49813714	      3.05811202	      1.02045348	     -0.65651233	      0.97746545	      0.28667316	     30.88820927	      0.17908747	     -0.66511986	    -20.19281017	     -0.26242936	    -11.83203256	      4.44119406	     -1.49772424	      5.83959317	     -2.04021393	    -30.20854082	      1.85503858	     -1.73303967	     15.52127871	      2.67885590	     -0.30443593	      1.51550015
